<svg width="22" height="22" viewBox="0 0 22 22" fill="none" xmlns="http://www.w3.org/2000/svg">
<g clip-path="url(#clip0_2_1952)">
<path d="M5.38817 9.05484C5.13262 9.31022 4.9299 9.61346 4.79159 9.94722C4.65328 10.281 4.58209 10.6387 4.58209 11C4.58209 11.3613 4.65328 11.719 4.79159 12.0528C4.9299 12.3866 5.13262 12.6898 5.38817 12.9452L8.33158 15.8886C8.50612 16.0464 8.73467 16.1311 8.9699 16.125C9.20513 16.119 9.42903 16.0227 9.59524 15.8561C9.76145 15.6896 9.85724 15.4655 9.86278 15.2302C9.86832 14.995 9.78318 14.7666 9.625 14.5924L6.94192 11.9103L21.0833 11.9167C21.3264 11.9167 21.5596 11.8201 21.7315 11.6482C21.9034 11.4763 22 11.2431 22 11C22 10.7569 21.9034 10.5237 21.7315 10.3518C21.5596 10.1799 21.3264 10.0833 21.0833 10.0833L6.95933 10.0751L9.625 7.40759C9.79688 7.23558 9.8934 7.00234 9.89331 6.75918C9.89322 6.51601 9.79655 6.28284 9.62454 6.11096C9.45254 5.93908 9.2193 5.84256 8.97613 5.84265C8.73297 5.84274 8.4998 5.93942 8.32792 6.11142L5.38817 9.05484Z" fill="#BBB187"/>
<path d="M7.33333 21.0833C7.33333 20.8402 7.23675 20.6071 7.06484 20.4352C6.89293 20.2632 6.65978 20.1667 6.41666 20.1667L2.74999 20.1667C2.50688 20.1667 2.27372 20.0701 2.10181 19.8982C1.9299 19.7263 1.83333 19.4931 1.83333 19.25L1.83333 2.75C1.83333 2.50688 1.92991 2.27373 2.10181 2.10182C2.27372 1.92991 2.50688 1.83333 2.75 1.83333L6.41666 1.83333C6.65978 1.83333 6.89294 1.73676 7.06484 1.56485C7.23675 1.39294 7.33333 1.15978 7.33333 0.916667C7.33333 0.673552 7.23675 0.440394 7.06484 0.268485C6.89294 0.0965771 6.65978 -2.94419e-08 6.41666 -4.00688e-08L2.75 -2.00344e-07C2.02065 -2.32225e-07 1.32118 0.289731 0.805451 0.805456C0.289727 1.32118 -4.37986e-06 2.02065 -4.41174e-06 2.75L-5.13298e-06 19.25C-5.16486e-06 19.9793 0.289726 20.6788 0.80545 21.1945C1.32118 21.7103 2.02065 22 2.74999 22L6.41666 22C6.65978 22 6.89293 21.9034 7.06484 21.7315C7.23675 21.5596 7.33333 21.3265 7.33333 21.0833Z" fill="#BBB187"/>
</g>
<defs>
<clipPath id="clip0_2_1952">
<rect width="22" height="22" fill="white" transform="translate(22) rotate(90)"/>
</clipPath>
</defs>
</svg>
